<svg width="19" height="22" viewBox="0 0 19 22" fill="none" xmlns="http://www.w3.org/2000/svg">
<path d="M13.8857 12.371C12.6726 11.3794 11.0257 10.8215 9.30972 10.8215C7.59371 10.8215 5.94686 11.3794 4.73371 12.371C1.759 14.802 3.34614 17.7704 4.22457 20.643H14.3949C15.2733 17.7704 16.862 14.802 13.8857 12.371Z" fill="white"/>
<path d="M15.6111 18.0564C15.6111 19.6749 12.9664 20.6429 9.22014 20.6429C5.47229 20.6429 2.82758 19.6749 2.82758 18.0564C2.82758 16.4378 9.22014 14.7815 9.22014 14.7815C9.22014 14.7815 15.6127 16.4378 15.6127 18.0564H15.6111Z" fill="#D0F3F5"/>
<path d="M13.8857 12.371C12.6726 11.3794 11.0257 10.8215 9.30972 10.8215C7.59371 10.8215 5.94686 11.3794 4.73371 12.371C1.759 14.802 3.34614 17.7704 4.22457 20.643H14.3949C15.2733 17.7704 16.862 14.802 13.8857 12.371Z" stroke="#44A5C1" stroke-width="2" stroke-linecap="round" stroke-linejoin="round"/>
<path d="M13.8857 9.272C12.6726 10.2636 11.0257 10.8214 9.30972 10.8214C7.59371 10.8214 5.94686 10.2636 4.73371 9.272C1.759 6.841 3.34614 3.871 4.22457 1H14.3949C15.2733 3.871 16.862 6.841 13.8857 9.272Z" fill="white" stroke="#3FB8C0" stroke-width="2" stroke-linecap="round" stroke-linejoin="round"/>
<path d="M1 1H17.6194" stroke="#44A5C1" stroke-width="2" stroke-linecap="round" stroke-linejoin="round"/>
<path d="M1 20.6428H17.6194" stroke="#44A5C1" stroke-width="2" stroke-linecap="round" stroke-linejoin="round"/>
</svg>
