<svg width="24" height="25" viewBox="0 0 24 25" fill="none" xmlns="http://www.w3.org/2000/svg">
<path d="M22.2071 2.11184C21.0114 0.945398 18.7126 0.703942 10.0153 4.19262C3.95664 6.62671 0.456646 8.0648 1.06905 11.7701C1.338 13.3981 3.05166 15.8961 4.97974 17.9059V21.5561C4.97974 23.099 6.8515 23.9068 8.01998 22.8699L9.49194 21.5615C10.5368 22.1935 11.5272 22.6374 12.3196 22.7616C16.1121 23.3617 17.5859 19.9387 20.0755 14.0195C23.6464 5.52241 23.3992 3.27829 22.2053 2.11184H22.2071Z" fill="white"/>
<path d="M22.2071 2.11184C21.0114 0.945398 18.7126 0.703942 10.0153 4.19262C3.95664 6.62671 0.456646 8.06479 1.06905 11.7701C1.338 13.3981 3.05166 15.8961 4.97974 17.9059V21.5561C4.97974 23.099 6.8515 23.9068 8.01998 22.8699L9.49194 21.5615C10.5368 22.1935 11.5272 22.6374 12.3196 22.7616C16.1121 23.3617 17.5859 19.9387 20.0755 14.0195C23.6464 5.52241 23.3992 3.27829 22.2053 2.11184H22.2071Z" stroke="#44A5C1" stroke-width="2" stroke-linejoin="round"/>
<path d="M22.3707 2.28761L4.4927 17.3822C2.76996 15.4771 1.31617 13.2596 1.06902 11.7719C0.456615 8.0648 3.95843 6.62316 10.0189 4.19262C18.7144 0.703942 21.0132 0.945398 22.2053 2.11184C22.2634 2.16688 22.318 2.22547 22.3707 2.28761Z" fill="#D0F3F5" stroke="#44A5C1" stroke-width="2" stroke-linejoin="round"/>
</svg>
